<svg width="68" height="32" viewBox="0 0 68 32" fill="none" xmlns="http://www.w3.org/2000/svg"><path d="M16.377 32c3.765 0 7.876-1.94 12.22-5.765 2.056-1.811 3.839-3.75 5.177-5.306-.002-.002-.005-.004-.007-.008l-.006.007s-2.11-2.31-4.433-4.781c-1.25 1.493-3.057 3.53-5.133 5.359-3.861 3.401-6.383 4.114-7.818 4.114-5.415 0-9.82-4.317-9.82-9.621 0-5.276 4.407-9.588 9.827-9.621.247 0 .564.03.955.117-1.579-.687-3.276-1.18-4.893-1.18-9.926 0-11.865 6.508-11.998 6.97A15.646 15.646 0 000 16c0 8.822 7.347 16 16.377 16z" fill="url(#paint0_linear)"/><path d="M51.051 0c-3.764 0-7.876 1.94-12.219 5.765-2.056 1.811-3.84 3.75-5.177 5.306a.055.055 0 01.007.008.07.07 0 01.005-.007s2.111 2.31 4.434 4.78c1.25-1.492 3.056-3.53 5.133-5.358 3.86-3.401 6.382-4.114 7.817-4.114 5.416 0 9.82 4.317 9.82 9.621 0 5.275-4.407 9.588-9.827 9.621-.247 0-.564-.03-.955-.117 1.58.687 3.277 1.18 4.894 1.18 9.925 0 11.865-6.508 11.997-6.97a15.49 15.49 0 00.45-3.713C67.429 7.178 60.082 0 51.05 0z" fill="url(#paint1_linear)"/><path d="M54.964 26.523c-5.082-.125-10.364-4.152-11.442-5.154-2.784-2.587-9.21-9.592-9.713-10.142C29.1 5.93 22.72 0 16.377 0h-.016C8.652.039 2.173 5.285.45 12.287c.132-.461 2.664-7.094 11.99-6.863 5.081.125 10.389 4.207 11.466 5.208 2.783 2.587 9.21 9.594 9.712 10.142C38.33 26.072 44.71 32 51.051 32h.017c7.709-.039 14.187-5.285 15.91-12.287-.131.461-2.689 7.041-12.014 6.81z" fill="#C3C3C4"/><defs><linearGradient id="paint0_linear" x1="24.902" y1="29.89" x2="2.521" y2="6.828" gradientUnits="userSpaceOnUse"><stop offset=".21" stop-color="#979799"/><stop offset=".331" stop-color="#9C9C9E"/><stop offset=".477" stop-color="#ABABAD"/><stop offset=".493" stop-color="#ADADAF"/><stop offset=".575" stop-color="#BCBCBE"/><stop offset=".731" stop-color="#E4E4E5"/><stop offset=".769" stop-color="#EFEFEF"/></linearGradient><linearGradient id="paint1_linear" x1="42.526" y1="2.11" x2="64.908" y2="25.172" gradientUnits="userSpaceOnUse"><stop offset=".21" stop-color="#979799"/><stop offset=".331" stop-color="#9C9C9E"/><stop offset=".477" stop-color="#ABABAD"/><stop offset=".493" stop-color="#ADADAF"/><stop offset=".575" stop-color="#BCBCBE"/><stop offset=".731" stop-color="#E4E4E5"/><stop offset=".769" stop-color="#EFEFEF"/></linearGradient></defs></svg>